<svg xmlns="http://www.w3.org/2000/svg" width="64" height="64" viewBox="-32 -32 64 64">
    <path d="M-18,6 h36 a4,4 0 0 0 4-4 v-6 a8,8 0 0 0-5.5-7.6 l-6.5-2.2 a8,8 0 0 0-2.5-0.4 h-15 a8,8 0 0 0-2.5,0.4 l-6.5,2.2 A8,8 0 0 0-22,-4 v6 a4,4 0 0 0 4,4z"
          fill="#2C7BE5" />
    <rect x="-8" y="-14" width="16" height="8" rx="2" fill="#BBD3FF"/>
    <circle cx="-14" cy="-2" r="2.5" fill="#FFD166"/>
    <circle cx="14" cy="-2" r="2.5" fill="#FFD166"/>
    <circle cx="-12" cy="8" r="5" fill="#1F2D3D"/>
    <circle cx="12" cy="8" r="5" fill="#1F2D3D"/>
</svg>