<svg width="32" height="33" viewBox="0 0 32 33" fill="none" xmlns="http://www.w3.org/2000/svg">
<path d="M11.1172 21H12.6172V22.5H21.6172V10.5H12.6172V12H11.1172V9.75C11.1172 9.54 11.1897 9.3625 11.3347 9.2175C11.4797 9.0725 11.6572 9 11.8672 9H22.3672C22.5772 9 22.7547 9.0725 22.8997 9.2175C23.0447 9.3625 23.1172 9.54 23.1172 9.75V23.25C23.1172 23.46 23.0447 23.6375 22.8997 23.7825C22.7547 23.9275 22.5772 24 22.3672 24H11.8672C11.6572 24 11.4797 23.9275 11.3347 23.7825C11.1897 23.6375 11.1172 23.46 11.1172 23.25V21ZM12.6172 15.75H17.8672V17.25H12.6172V19.5L8.86719 16.5L12.6172 13.5V15.75Z" fill="#4B5563"/>
</svg>
