<svg width="32" height="33" viewBox="0 0 32 33" fill="none" xmlns="http://www.w3.org/2000/svg">
<path d="M10.7422 11.25H16.7422V21.75H10.7422V11.25ZM21.2422 21.75H18.2422V11.25H21.2422V21.75ZM9.99219 9.75C9.78219 9.75 9.60469 9.8225 9.45969 9.9675C9.31469 10.1125 9.24219 10.29 9.24219 10.5V22.5C9.24219 22.71 9.31469 22.8875 9.45969 23.0325C9.60469 23.1775 9.78219 23.25 9.99219 23.25H21.9922C22.2022 23.25 22.3797 23.1775 22.5247 23.0325C22.6697 22.8875 22.7422 22.71 22.7422 22.5V10.5C22.7422 10.29 22.6697 10.1125 22.5247 9.9675C22.3797 9.8225 22.2022 9.75 21.9922 9.75H9.99219ZM15.2422 16.5L12.2422 13.875V19.125L15.2422 16.5Z" fill="#cBd5e3"/>
</svg>
