<svg width="32" height="33" viewBox="0 0 32 33" fill="none" xmlns="http://www.w3.org/2000/svg">
<path d="M21.9922 19.875H23.4922V21.375H8.49219V19.875H9.99219V14.625C9.99219 13.535 10.2672 12.525 10.8172 11.595C11.3472 10.695 12.0622 9.98 12.9622 9.45C13.8922 8.9 14.9022 8.625 15.9922 8.625C17.0822 8.625 18.0922 8.9 19.0222 9.45C19.9222 9.98 20.6372 10.695 21.1672 11.595C21.7172 12.525 21.9922 13.535 21.9922 14.625V19.875ZM20.4922 19.875V14.625C20.4922 13.815 20.2872 13.06 19.8772 12.36C19.4772 11.68 18.9372 11.14 18.2572 10.74C17.5572 10.33 16.8022 10.125 15.9922 10.125C15.1822 10.125 14.4272 10.33 13.7272 10.74C13.0472 11.14 12.5072 11.68 12.1072 12.36C11.6972 13.06 11.4922 13.815 11.4922 14.625V19.875H20.4922ZM13.7422 22.875H18.2422V24.375H13.7422V22.875Z" fill="#4B5563"/>
</svg>
