<svg width="20" height="19" viewBox="0 0 20 19" fill="none" xmlns="http://www.w3.org/2000/svg">
<path d="M15.9922 12.875H17.4922V14.375H2.49219V12.875H3.99219V7.625C3.99219 6.535 4.26719 5.525 4.81719 4.595C5.34719 3.695 6.06219 2.98 6.96219 2.45C7.89219 1.9 8.90219 1.625 9.99219 1.625C11.0822 1.625 12.0922 1.9 13.0222 2.45C13.9222 2.98 14.6372 3.695 15.1672 4.595C15.7172 5.525 15.9922 6.535 15.9922 7.625V12.875ZM14.4922 12.875V7.625C14.4922 6.815 14.2872 6.06 13.8772 5.36C13.4772 4.68 12.9372 4.14 12.2572 3.74C11.5572 3.33 10.8022 3.125 9.99219 3.125C9.18219 3.125 8.42719 3.33 7.72719 3.74C7.04719 4.14 6.50719 4.68 6.10719 5.36C5.69719 6.06 5.49219 6.815 5.49219 7.625V12.875H14.4922ZM7.74219 15.875H12.2422V17.375H7.74219V15.875Z" fill="#4B5563"/>
</svg>
