<svg width="20" height="19" viewBox="0 0 20 19" fill="none" xmlns="http://www.w3.org/2000/svg">
<path d="M8.49219 5V6.5H4.74219V14.75H12.9922V11H14.4922V15.5C14.4922 15.71 14.4197 15.8875 14.2747 16.0325C14.1297 16.1775 13.9522 16.25 13.7422 16.25H3.99219C3.78219 16.25 3.60469 16.1775 3.45969 16.0325C3.31469 15.8875 3.24219 15.71 3.24219 15.5V5.75C3.24219 5.54 3.31469 5.3625 3.45969 5.2175C3.60469 5.0725 3.78219 5 3.99219 5H8.49219ZM16.7422 2.75V8.75H15.2422V5.315L9.39219 11.15L8.34219 10.1L14.1772 4.25H10.7422V2.75H16.7422Z" fill="#4B5563"/>
</svg>
