<svg width="14" height="12" viewBox="0 0 14 12" fill="none" xmlns="http://www.w3.org/2000/svg">
<path d="M3.73 2.22C4.17667 1.83333 4.67667 1.53333 5.23 1.32C5.79667 1.10667 6.38667 1 7 1C7.68 1 8.33 1.13 8.95 1.39C9.54333 1.64333 10.0717 2.00167 10.535 2.465C10.9983 2.92833 11.3567 3.45667 11.61 4.05C11.87 4.67 12 5.32 12 6C12 6.52667 11.92 7.03667 11.76 7.53C11.6067 8.01 11.3833 8.45667 11.09 8.87L9.5 6H11C11 5.27333 10.8167 4.6 10.45 3.98C10.0967 3.38 9.62 2.90333 9.02 2.55C8.4 2.18333 7.72667 2 7 2C6.47333 2 5.96667 2.1 5.48 2.3C5.01333 2.49333 4.59667 2.76333 4.23 3.11L3.73 2.22ZM10.27 9.78C9.82333 10.1667 9.32333 10.4667 8.77 10.68C8.20333 10.8933 7.61333 11 7 11C6.32 11 5.67 10.87 5.05 10.61C4.45667 10.3567 3.92833 9.99833 3.465 9.535C3.00167 9.07167 2.64333 8.54333 2.39 7.95C2.13 7.33 2 6.68 2 6C2 5.47333 2.08 4.96333 2.24 4.47C2.39333 3.99 2.61667 3.54333 2.91 3.13L4.5 6H3C3 6.72667 3.18333 7.4 3.55 8.02C3.90333 8.62 4.38 9.09667 4.98 9.45C5.6 9.81667 6.27333 10 7 10C7.52667 10 8.03333 9.9 8.52 9.7C8.98667 9.50667 9.40333 9.23667 9.77 8.89L10.27 9.78Z" fill="white"/>
</svg>
