<svg width="15" height="14" viewBox="0 0 15 14" fill="none" xmlns="http://www.w3.org/2000/svg">
<path d="M7.28903 1.75C8.31533 1.75 9.2872 1.98333 10.2047 2.45C11.0832 2.90111 11.8238 3.52528 12.4264 4.3225C13.0289 5.11972 13.4196 6.01222 13.5984 7C13.4196 7.98778 13.0289 8.88028 12.4264 9.6775C11.8238 10.4747 11.0832 11.0989 10.2047 11.55C9.2872 12.0167 8.31533 12.25 7.28903 12.25C6.26273 12.25 5.29085 12.0167 4.3734 11.55C3.49483 11.0989 2.75426 10.4747 2.1517 9.6775C1.54913 8.88028 1.15844 7.98778 0.979614 7C1.15844 6.01222 1.54913 5.11972 2.1517 4.3225C2.75426 3.52528 3.49483 2.90111 4.3734 2.45C5.29085 1.98333 6.26273 1.75 7.28903 1.75ZM7.28903 11.0833C8.09763 11.0833 8.86735 10.9044 9.5982 10.5467C10.3057 10.2044 10.9063 9.72222 11.4001 9.1C11.8938 8.47778 12.23 7.77778 12.4089 7C12.23 6.22222 11.8938 5.52222 11.4001 4.9C10.9063 4.27778 10.3057 3.79556 9.5982 3.45333C8.86735 3.09556 8.09763 2.91667 7.28903 2.91667C6.48043 2.91667 5.7107 3.09556 4.97985 3.45333C4.27233 3.79556 3.67171 4.27778 3.178 4.9C2.68428 5.52222 2.34801 6.22222 2.16919 7C2.34801 7.77778 2.68428 8.47778 3.178 9.1C3.67171 9.72222 4.27233 10.2044 4.97985 10.5467C5.7107 10.9044 6.48043 11.0833 7.28903 11.0833ZM7.28903 9.625C6.81475 9.625 6.37741 9.50639 5.977 9.26917C5.57658 9.03194 5.25781 8.71306 5.02067 8.3125C4.78353 7.91194 4.66496 7.47444 4.66496 7C4.66496 6.52556 4.78353 6.08806 5.02067 5.6875C5.25781 5.28694 5.57658 4.96806 5.977 4.73083C6.37741 4.49361 6.81475 4.375 7.28903 4.375C7.7633 4.375 8.20065 4.49361 8.60106 4.73083C9.00147 4.96806 9.32025 5.28694 9.55738 5.6875C9.79452 6.08806 9.91309 6.52556 9.91309 7C9.91309 7.47444 9.79452 7.91194 9.55738 8.3125C9.32025 8.71306 9.00147 9.03194 8.60106 9.26917C8.20065 9.50639 7.7633 9.625 7.28903 9.625ZM7.28903 8.45833C7.55338 8.45833 7.79635 8.39222 8.01793 8.26C8.23952 8.12778 8.4164 7.95083 8.54858 7.72917C8.68075 7.5075 8.74684 7.26444 8.74684 7C8.74684 6.73556 8.68075 6.4925 8.54858 6.27083C8.4164 6.04917 8.23952 5.87222 8.01793 5.74C7.79635 5.60778 7.55338 5.54167 7.28903 5.54167C7.02468 5.54167 6.78171 5.60778 6.56012 5.74C6.33853 5.87222 6.16165 6.04917 6.02948 6.27083C5.8973 6.4925 5.83121 6.73556 5.83121 7C5.83121 7.26444 5.8973 7.5075 6.02948 7.72917C6.16165 7.95083 6.33853 8.12778 6.56012 8.26C6.78171 8.39222 7.02468 8.45833 7.28903 8.45833Z" fill="#C084FC"/>
</svg>
