<svg width="24" height="28" viewBox="0 0 24 28" fill="none" xmlns="http://www.w3.org/2000/svg">
<path d="M11.1222 6.38C12.3422 6.38 13.4772 6.69 14.5272 7.31C15.5472 7.9 16.3572 8.705 16.9572 9.725C17.5672 10.775 17.8722 11.91 17.8722 13.13C17.8722 14.35 17.5672 15.485 16.9572 16.535C16.3572 17.555 15.5472 18.365 14.5272 18.965C13.4772 19.575 12.3422 19.88 11.1222 19.88C9.90219 19.88 8.76719 19.575 7.71719 18.965C6.69719 18.365 5.89219 17.555 5.30219 16.535C4.68219 15.485 4.37219 14.35 4.37219 13.13C4.37219 11.91 4.68219 10.775 5.30219 9.725C5.89219 8.705 6.69719 7.9 7.71719 7.31C8.76719 6.69 9.90219 6.38 11.1222 6.38ZM11.1222 18.38C12.0722 18.38 12.9572 18.14 13.7772 17.66C14.5672 17.2 15.1922 16.575 15.6522 15.785C16.1322 14.965 16.3722 14.08 16.3722 13.13C16.3722 12.18 16.1322 11.295 15.6522 10.475C15.1922 9.685 14.5672 9.06 13.7772 8.6C12.9572 8.12 12.0722 7.88 11.1222 7.88C10.1722 7.88 9.28719 8.12 8.46719 8.6C7.67719 9.06 7.05219 9.685 6.59219 10.475C6.11219 11.295 5.87219 12.18 5.87219 13.13C5.87219 14.08 6.11219 14.965 6.59219 15.785C7.05219 16.575 7.67719 17.2 8.46719 17.66C9.28719 18.14 10.1722 18.38 11.1222 18.38ZM17.4822 18.44L19.6122 20.555L18.5472 21.62L16.4322 19.49L17.4822 18.44Z" fill="white"/>
</svg>
