<svg width="24" height="28" viewBox="0 0 24 28" fill="none" xmlns="http://www.w3.org/2000/svg">
<path d="M9.74219 6.845V8.435C9.01219 8.735 8.36219 9.1625 7.79219 9.7175C7.22219 10.2725 6.78219 10.91 6.47219 11.63C6.15219 12.39 5.99219 13.18 5.99219 14C5.99219 15.09 6.26719 16.1 6.81719 17.03C7.34719 17.93 8.06219 18.645 8.96219 19.175C9.89219 19.725 10.9022 20 11.9922 20C12.8122 20 13.6022 19.84 14.3622 19.52C15.0822 19.21 15.7197 18.77 16.2747 18.2C16.8297 17.63 17.2572 16.98 17.5572 16.25H19.1472C18.8272 17.26 18.3172 18.1625 17.6172 18.9575C16.9172 19.7525 16.0872 20.37 15.1272 20.81C14.1372 21.27 13.0922 21.5 11.9922 21.5C10.9722 21.5 9.99719 21.305 9.06719 20.915C8.17719 20.535 7.38469 19.9975 6.68969 19.3025C5.99469 18.6075 5.45719 17.815 5.07719 16.925C4.68719 15.995 4.49219 15.02 4.49219 14C4.49219 12.9 4.72219 11.855 5.18219 10.865C5.62219 9.905 6.23969 9.075 7.03469 8.375C7.82969 7.675 8.73219 7.165 9.74219 6.845ZM11.9922 6.5C13.0122 6.5 13.9872 6.695 14.9172 7.085C15.8072 7.465 16.5997 8.0025 17.2947 8.6975C17.9897 9.3925 18.5272 10.185 18.9072 11.075C19.2972 12.005 19.4922 12.98 19.4922 14C19.4922 14.25 19.4822 14.5 19.4622 14.75H11.2422V6.53C11.4922 6.51 11.7422 6.5 11.9922 6.5ZM12.7422 8.045V13.25H17.9472C17.8372 12.36 17.5422 11.5375 17.0622 10.7825C16.5822 10.0275 15.9647 9.41 15.2097 8.93C14.4547 8.45 13.6322 8.155 12.7422 8.045Z" fill="white"/>
</svg>
