<svg width="15" height="14" viewBox="0 0 15 14" fill="none" xmlns="http://www.w3.org/2000/svg">
<path d="M4.95653 2.91666C4.95653 2.49666 5.06149 2.10777 5.27142 1.74999C5.48134 1.39221 5.76513 1.10832 6.12278 0.898323C6.48043 0.688323 6.86918 0.583323 7.28903 0.583323C7.70888 0.583323 8.09763 0.688323 8.45528 0.898323C8.81293 1.10832 9.09672 1.39221 9.30664 1.74999C9.51657 2.10777 9.62153 2.49666 9.62153 2.91666V5.98499C10.158 6.35832 10.5817 6.83277 10.8927 7.40832C11.2115 8.00721 11.3709 8.64888 11.3709 9.33332C11.3709 10.0722 11.1843 10.7605 10.8111 11.3983C10.4535 12.0128 9.96752 12.4989 9.35329 12.8567C8.71574 13.23 8.02765 13.4167 7.28903 13.4167C6.5504 13.4167 5.86232 13.23 5.22477 12.8567C4.61054 12.4989 4.1246 12.0128 3.76695 11.3983C3.39375 10.7605 3.20715 10.0722 3.20715 9.33332C3.20715 8.64888 3.36654 8.00721 3.68532 7.40832C3.99632 6.83277 4.42005 6.35832 4.95653 5.98499V2.91666ZM5.62129 6.94166C5.23254 7.21388 4.92737 7.55999 4.70578 7.97999C4.4842 8.39999 4.3734 8.8511 4.3734 9.33332C4.3734 9.86221 4.50363 10.3503 4.7641 10.7975C5.02456 11.2447 5.37832 11.5986 5.82538 11.8592C6.27245 12.1197 6.76033 12.25 7.28903 12.25C7.81773 12.25 8.30561 12.1197 8.75267 11.8592C9.19973 11.5986 9.5535 11.2447 9.81396 10.7975C10.0744 10.3503 10.2047 9.86221 10.2047 9.33332C10.2047 8.8511 10.0939 8.39999 9.87227 7.97999C9.65068 7.55999 9.34552 7.21388 8.95677 6.94166L8.45528 6.59166V2.91666C8.45528 2.70666 8.4028 2.51221 8.29783 2.33332C8.19287 2.15443 8.05098 2.01249 7.87215 1.90749C7.69333 1.80249 7.49895 1.74999 7.28903 1.74999C7.0791 1.74999 6.88473 1.80249 6.7059 1.90749C6.52708 2.01249 6.38518 2.15443 6.28022 2.33332C6.17526 2.51221 6.12278 2.70666 6.12278 2.91666V6.59166L5.62129 6.94166ZM6.7059 7.06999V2.91666H7.87215V7.06999C8.20648 7.15555 8.50582 7.30916 8.77017 7.53082C9.03452 7.75249 9.2425 8.01888 9.39411 8.32999C9.54572 8.6411 9.62153 8.97555 9.62153 9.33332C9.62153 9.75332 9.51657 10.1422 9.30664 10.5C9.09672 10.8578 8.81293 11.1417 8.45528 11.3517C8.09763 11.5617 7.70888 11.6667 7.28903 11.6667C6.86918 11.6667 6.48043 11.5617 6.12278 11.3517C5.76513 11.1417 5.48134 10.8578 5.27142 10.5C5.06149 10.1422 4.95653 9.75332 4.95653 9.33332C4.95653 8.97555 5.03233 8.6411 5.18395 8.32999C5.33556 8.01888 5.54354 7.75249 5.80789 7.53082C6.07224 7.30916 6.37158 7.15555 6.7059 7.06999ZM7.28903 10.5C7.49895 10.5 7.69333 10.4475 7.87215 10.3425C8.05098 10.2375 8.19287 10.0955 8.29783 9.91666C8.4028 9.73777 8.45528 9.54332 8.45528 9.33332C8.45528 9.12332 8.4028 8.92888 8.29783 8.74999C8.19287 8.5711 8.05098 8.42916 7.87215 8.32416C7.69333 8.21916 7.49895 8.16666 7.28903 8.16666C7.0791 8.16666 6.88473 8.21916 6.7059 8.32416C6.52708 8.42916 6.38518 8.5711 6.28022 8.74999C6.17526 8.92888 6.12278 9.12332 6.12278 9.33332C6.12278 9.54332 6.17526 9.73777 6.28022 9.91666C6.38518 10.0955 6.52708 10.2375 6.7059 10.3425C6.88473 10.4475 7.0791 10.5 7.28903 10.5Z" fill="#FB923C"/>
</svg>
