<svg width="24" height="28" viewBox="0 0 24 28" fill="none" xmlns="http://www.w3.org/2000/svg">
<path d="M4.49219 8.75L9.74219 6.5L14.2422 8.75L18.9672 6.725C19.0672 6.685 19.1647 6.685 19.2597 6.725C19.3547 6.765 19.4222 6.83 19.4622 6.92C19.4822 6.97 19.4922 7.02 19.4922 7.07V19.25L14.2422 21.5L9.74219 19.25L5.01719 21.275C4.91719 21.315 4.81969 21.315 4.72469 21.275C4.62969 21.235 4.56219 21.17 4.52219 21.08C4.50219 21.03 4.49219 20.98 4.49219 20.93V8.75ZM14.9922 19.55L17.9922 18.26V8.78L14.9922 10.055V19.55ZM13.4922 19.445V10.055L10.4922 8.555V17.945L13.4922 19.445ZM8.99219 17.945V8.45L5.99219 9.74V19.22L8.99219 17.945Z" fill="white"/>
</svg>
