<svg width="15" height="14" viewBox="0 0 15 14" fill="none" xmlns="http://www.w3.org/2000/svg">
<path d="M7.28902 2.30999L4.40838 5.20332C3.87968 5.72443 3.52203 6.33888 3.33543 7.04665C3.15661 7.73888 3.15661 8.4311 3.33543 9.12332C3.52203 9.8311 3.87774 10.4475 4.40255 10.9725C4.92736 11.4975 5.54353 11.8533 6.25106 12.04C6.94303 12.2189 7.63501 12.2189 8.32698 12.04C9.03451 11.8533 9.65067 11.4975 10.1755 10.9725C10.7003 10.4475 11.056 9.8311 11.2426 9.12332C11.4214 8.4311 11.4214 7.73888 11.2426 7.04665C11.056 6.33888 10.6984 5.72443 10.1697 5.20332L7.28902 2.30999ZM7.28902 0.664987L10.9977 4.37499C11.6741 5.04388 12.129 5.83721 12.3622 6.75499C12.5955 7.64165 12.5955 8.52832 12.3622 9.41499C12.129 10.3328 11.6761 11.128 11.0035 11.8008C10.331 12.4736 9.53599 12.9305 8.61854 13.1717C7.73219 13.3972 6.84584 13.3972 5.95949 13.1717C5.04204 12.9305 4.24705 12.4736 3.57451 11.8008C2.90197 11.128 2.44908 10.3328 2.21583 9.41499C1.98258 8.52832 1.98258 7.64165 2.21583 6.75499C2.44908 5.83721 2.90392 5.04388 3.58034 4.37499L7.28902 0.664987Z" fill="#60A5FA"/>
</svg>
