<svg width="24" height="28" viewBox="0 0 24 28" fill="none" xmlns="http://www.w3.org/2000/svg">
<path d="M11.2422 15.875V17.375C10.4322 17.375 9.67719 17.58 8.97719 17.99C8.29719 18.39 7.75719 18.93 7.35719 19.61C6.94719 20.31 6.74219 21.065 6.74219 21.875H5.24219C5.24219 20.785 5.51719 19.775 6.06719 18.845C6.59719 17.945 7.31219 17.23 8.21219 16.7C9.14219 16.15 10.1522 15.875 11.2422 15.875ZM11.2422 15.125C10.4222 15.125 9.66719 14.92 8.97719 14.51C8.29719 14.11 7.75719 13.57 7.35719 12.89C6.94719 12.2 6.74219 11.445 6.74219 10.625C6.74219 9.805 6.94719 9.05 7.35719 8.36C7.75719 7.68 8.29719 7.14 8.97719 6.74C9.66719 6.33 10.4222 6.125 11.2422 6.125C12.0622 6.125 12.8172 6.33 13.5072 6.74C14.1872 7.14 14.7272 7.68 15.1272 8.36C15.5372 9.05 15.7422 9.805 15.7422 10.625C15.7422 11.445 15.5372 12.2 15.1272 12.89C14.7272 13.57 14.1872 14.11 13.5072 14.51C12.8172 14.92 12.0622 15.125 11.2422 15.125ZM11.2422 13.625C11.7822 13.625 12.2822 13.49 12.7422 13.22C13.2022 12.95 13.5672 12.585 13.8372 12.125C14.1072 11.665 14.2422 11.165 14.2422 10.625C14.2422 10.085 14.1072 9.585 13.8372 9.125C13.5672 8.665 13.2022 8.3 12.7422 8.03C12.2822 7.76 11.7822 7.625 11.2422 7.625C10.7022 7.625 10.2022 7.76 9.74219 8.03C9.28219 8.3 8.91719 8.665 8.64719 9.125C8.37719 9.585 8.24219 10.085 8.24219 10.625C8.24219 11.165 8.37719 11.665 8.64719 12.125C8.91719 12.585 9.28219 12.95 9.74219 13.22C10.2022 13.49 10.7022 13.625 11.2422 13.625ZM17.9922 18.125H18.7422V21.875H12.7422V18.125H13.4922V17.375C13.4922 16.965 13.5922 16.5875 13.7922 16.2425C13.9922 15.8975 14.2647 15.625 14.6097 15.425C14.9547 15.225 15.3322 15.125 15.7422 15.125C16.1522 15.125 16.5297 15.225 16.8747 15.425C17.2197 15.625 17.4922 15.8975 17.6922 16.2425C17.8922 16.5875 17.9922 16.965 17.9922 17.375V18.125ZM16.4922 18.125V17.375C16.4922 17.165 16.4197 16.9875 16.2747 16.8425C16.1297 16.6975 15.9522 16.625 15.7422 16.625C15.5322 16.625 15.3547 16.6975 15.2097 16.8425C15.0647 16.9875 14.9922 17.165 14.9922 17.375V18.125H16.4922Z" fill="white"/>
</svg>
