<svg width="24" height="28" viewBox="0 0 24 28" fill="none" xmlns="http://www.w3.org/2000/svg">
<path d="M7.25219 8.195L13.0572 14L11.9922 15.065L7.25219 10.325C6.85219 10.835 6.54219 11.4 6.32219 12.02C6.10219 12.66 5.99219 13.32 5.99219 14C5.99219 15.09 6.26719 16.1 6.81719 17.03C7.34719 17.93 8.06219 18.645 8.96219 19.175C9.89219 19.725 10.9022 20 11.9922 20C13.0822 20 14.0922 19.725 15.0222 19.175C15.9222 18.645 16.6372 17.93 17.1672 17.03C17.7172 16.1 17.9922 15.09 17.9922 14C17.9922 12.91 17.7172 11.9 17.1672 10.97C16.6372 10.07 15.9222 9.355 15.0222 8.825C14.0922 8.275 13.0822 8 11.9922 8C11.3222 8 10.6672 8.11 10.0272 8.33L8.87219 7.175C9.86219 6.725 10.9022 6.5 11.9922 6.5C13.0122 6.5 13.9872 6.695 14.9172 7.085C15.8072 7.465 16.5997 8.0025 17.2947 8.6975C17.9897 9.3925 18.5272 10.185 18.9072 11.075C19.2972 12.005 19.4922 12.98 19.4922 14C19.4922 15.02 19.2972 15.995 18.9072 16.925C18.5272 17.815 17.9897 18.6075 17.2947 19.3025C16.5997 19.9975 15.8072 20.535 14.9172 20.915C13.9872 21.305 13.0122 21.5 11.9922 21.5C10.9722 21.5 9.99719 21.305 9.06719 20.915C8.17719 20.535 7.38469 19.9975 6.68969 19.3025C5.99469 18.6075 5.45719 17.815 5.07719 16.925C4.68719 15.995 4.49219 15.02 4.49219 14C4.49219 12.85 4.74219 11.76 5.24219 10.73C5.72219 9.74 6.39219 8.895 7.25219 8.195Z" fill="white"/>
</svg>
