<svg width="24" height="28" viewBox="0 0 24 28" fill="none" xmlns="http://www.w3.org/2000/svg">
<path d="M5.49721 17.75C5.17721 17.2 4.93221 16.62 4.76221 16.01C5.13221 15.82 5.42971 15.545 5.65471 15.185C5.87971 14.825 5.99221 14.43 5.99221 14C5.99221 13.57 5.87971 13.175 5.65471 12.815C5.42971 12.455 5.13221 12.18 4.76221 11.99C5.11221 10.74 5.73721 9.65501 6.63721 8.73501C6.98721 8.96501 7.37471 9.08751 7.79971 9.10251C8.22471 9.11751 8.62221 9.01751 8.99221 8.80251C9.36221 8.58751 9.64721 8.29251 9.84721 7.91751C10.0472 7.54251 10.1372 7.15001 10.1172 6.74001C11.3672 6.41001 12.6172 6.41001 13.8672 6.74001C13.8472 7.15001 13.9372 7.54251 14.1372 7.91751C14.3372 8.29251 14.6222 8.58751 14.9922 8.80251C15.3622 9.01751 15.7597 9.11751 16.1847 9.10251C16.6097 9.08751 16.9972 8.96501 17.3472 8.73501C17.7872 9.19501 18.1672 9.70001 18.4872 10.25C18.8072 10.8 19.0522 11.38 19.2222 11.99C18.8522 12.18 18.5547 12.455 18.3297 12.815C18.1047 13.175 17.9922 13.57 17.9922 14C17.9922 14.43 18.1047 14.825 18.3297 15.185C18.5547 15.545 18.8522 15.82 19.2222 16.01C18.8722 17.26 18.2472 18.345 17.3472 19.265C16.9972 19.035 16.6097 18.9125 16.1847 18.8975C15.7597 18.8825 15.3622 18.9825 14.9922 19.1975C14.6222 19.4125 14.3372 19.7075 14.1372 20.0825C13.9372 20.4575 13.8472 20.85 13.8672 21.26C12.6172 21.59 11.3672 21.59 10.1172 21.26C10.1372 20.85 10.0472 20.4575 9.84721 20.0825C9.64721 19.7075 9.36221 19.4125 8.99221 19.1975C8.62221 18.9825 8.22471 18.8825 7.79971 18.8975C7.37471 18.9125 6.98721 19.035 6.63721 19.265C6.19721 18.805 5.81721 18.3 5.49721 17.75ZM9.74221 17.9C10.1422 18.13 10.4872 18.425 10.7772 18.785C11.0672 19.145 11.2872 19.54 11.4372 19.97C11.8072 20.01 12.1772 20.01 12.5472 19.97C12.6972 19.54 12.9147 19.145 13.1997 18.785C13.4847 18.425 13.8297 18.1275 14.2347 17.8925C14.6397 17.6575 15.0722 17.505 15.5322 17.435C15.9922 17.365 16.4422 17.38 16.8822 17.48C17.1022 17.17 17.2922 16.845 17.4522 16.505C17.1422 16.165 16.9047 15.78 16.7397 15.35C16.5747 14.92 16.4922 14.47 16.4922 14C16.4922 13.53 16.5747 13.08 16.7397 12.65C16.9047 12.22 17.1422 11.835 17.4522 11.495C17.3722 11.325 17.2847 11.16 17.1897 11C17.0947 10.84 16.9922 10.68 16.8822 10.52C16.4422 10.62 15.9922 10.635 15.5322 10.565C15.0722 10.495 14.6422 10.3425 14.2422 10.1075C13.8422 9.87251 13.4972 9.57501 13.2072 9.21501C12.9172 8.85501 12.6972 8.46001 12.5472 8.03001C12.1772 7.99001 11.8072 7.99001 11.4372 8.03001C11.2872 8.46001 11.0697 8.85501 10.7847 9.21501C10.4997 9.57501 10.1522 9.87251 9.74221 10.1075C9.33221 10.3425 8.89971 10.495 8.44471 10.565C7.98971 10.635 7.54221 10.62 7.10221 10.52C6.88221 10.83 6.69221 11.155 6.53221 11.495C6.84221 11.835 7.07971 12.22 7.24471 12.65C7.40971 13.08 7.49221 13.53 7.49221 14C7.49221 14.47 7.40971 14.92 7.24471 15.35C7.07971 15.78 6.84221 16.165 6.53221 16.505C6.61221 16.675 6.69971 16.84 6.79471 17C6.88971 17.16 6.99221 17.32 7.10221 17.48C7.54221 17.38 7.99221 17.365 8.45221 17.435C8.91221 17.505 9.34221 17.66 9.74221 17.9ZM11.9922 16.25C11.5822 16.25 11.2047 16.15 10.8597 15.95C10.5147 15.75 10.2422 15.4775 10.0422 15.1325C9.84221 14.7875 9.74221 14.41 9.74221 14C9.74221 13.59 9.84221 13.2125 10.0422 12.8675C10.2422 12.5225 10.5147 12.25 10.8597 12.05C11.2047 11.85 11.5822 11.75 11.9922 11.75C12.4022 11.75 12.7797 11.85 13.1247 12.05C13.4697 12.25 13.7422 12.5225 13.9422 12.8675C14.1422 13.2125 14.2422 13.59 14.2422 14C14.2422 14.41 14.1422 14.7875 13.9422 15.1325C13.7422 15.4775 13.4697 15.75 13.1247 15.95C12.7797 16.15 12.4022 16.25 11.9922 16.25ZM11.9922 14.75C12.2022 14.75 12.3797 14.6775 12.5247 14.5325C12.6697 14.3875 12.7422 14.21 12.7422 14C12.7422 13.79 12.6697 13.6125 12.5247 13.4675C12.3797 13.3225 12.2022 13.25 11.9922 13.25C11.7822 13.25 11.6047 13.3225 11.4597 13.4675C11.3147 13.6125 11.2422 13.79 11.2422 14C11.2422 14.21 11.3147 14.3875 11.4597 14.5325C11.6047 14.6775 11.7822 14.75 11.9922 14.75Z" fill="white"/>
</svg>
