<svg width="24" height="28" viewBox="0 0 24 28" fill="none" xmlns="http://www.w3.org/2000/svg">
<path d="M14.9922 8C15.2022 8 15.3797 8.0725 15.5247 8.2175C15.6697 8.3625 15.7422 8.54 15.7422 8.75V11.9L19.6572 9.17C19.7372 9.11 19.8297 9.0875 19.9347 9.1025C20.0397 9.1175 20.1172 9.17 20.1672 9.26C20.2172 9.32 20.2422 9.39 20.2422 9.47V18.53C20.2422 18.63 20.2047 18.7175 20.1297 18.7925C20.0547 18.8675 19.9672 18.905 19.8672 18.905C19.7872 18.905 19.7172 18.88 19.6572 18.83L15.7422 16.1V19.25C15.7422 19.46 15.6697 19.6375 15.5247 19.7825C15.3797 19.9275 15.2022 20 14.9922 20H4.49219C4.28219 20 4.10469 19.9275 3.95969 19.7825C3.81469 19.6375 3.74219 19.46 3.74219 19.25V8.75C3.74219 8.54 3.81469 8.3625 3.95969 8.2175C4.10469 8.0725 4.28219 8 4.49219 8H14.9922ZM14.2422 9.5H5.24219V18.5H14.2422V9.5ZM8.54219 11.615C8.60219 11.615 8.65719 11.635 8.70719 11.675L11.9622 13.745C12.0322 13.795 12.0772 13.86 12.0972 13.94C12.1172 14.02 12.1072 14.095 12.0672 14.165C12.0372 14.195 12.0022 14.225 11.9622 14.255L8.70719 16.325C8.63719 16.375 8.56219 16.39 8.48219 16.37C8.40219 16.35 8.33719 16.305 8.28719 16.235C8.25719 16.185 8.24219 16.135 8.24219 16.085V11.915C8.24219 11.835 8.27219 11.765 8.33219 11.705C8.39219 11.645 8.46219 11.615 8.54219 11.615ZM18.7422 11.63L15.7422 13.73V14.27L18.7422 16.37V11.63Z" fill="white"/>
</svg>
