<svg width="17" height="16" viewBox="0 0 17 16" fill="none" xmlns="http://www.w3.org/2000/svg">
<path d="M8.32814 12C7.60859 12 6.9379 11.8178 6.31606 11.4533C5.712 11.0978 5.2323 10.6178 4.87696 10.0133C4.51275 9.39112 4.33064 8.72001 4.33064 8.00001C4.33064 7.28001 4.51275 6.6089 4.87696 5.98668C5.2323 5.38223 5.712 4.90223 6.31606 4.54668C6.9379 4.18223 7.60859 4.00001 8.32814 4.00001C9.04769 4.00001 9.71838 4.18223 10.3402 4.54668C10.9443 4.90223 11.424 5.38223 11.7793 5.98668C12.1435 6.6089 12.3256 7.28001 12.3256 8.00001C12.3256 8.72001 12.1435 9.39112 11.7793 10.0133C11.424 10.6178 10.9443 11.0978 10.3402 11.4533C9.71838 11.8178 9.04769 12 8.32814 12ZM8.32814 10.6667C8.80784 10.6667 9.25201 10.5467 9.66064 10.3067C10.0693 10.0667 10.3935 9.74223 10.6334 9.33334C10.8732 8.92445 10.9931 8.48001 10.9931 8.00001C10.9931 7.52001 10.8732 7.07557 10.6334 6.66668C10.3935 6.25779 10.0693 5.93334 9.66064 5.69334C9.25201 5.45334 8.80784 5.33334 8.32814 5.33334C7.84844 5.33334 7.40427 5.45334 6.99564 5.69334C6.58701 5.93334 6.26276 6.25779 6.02291 6.66668C5.78306 7.07557 5.66314 7.52001 5.66314 8.00001C5.66314 8.48001 5.78306 8.92445 6.02291 9.33334C6.26276 9.74223 6.58701 10.0667 6.99564 10.3067C7.40427 10.5467 7.84844 10.6667 8.32814 10.6667ZM7.66189 0.666677H8.99439V2.66668H7.66189V0.666677ZM7.66189 13.3333H8.99439V15.3333H7.66189V13.3333ZM2.67834 3.28001L3.61109 2.34668L5.03686 3.76001L4.09079 4.70668L2.67834 3.28001ZM11.6194 12.24L12.5655 11.2933L13.9779 12.72L13.0452 13.6533L11.6194 12.24ZM13.0452 2.34668L13.9779 3.28001L12.5655 4.70668L11.6194 3.76001L13.0452 2.34668ZM4.09079 11.2933L5.03686 12.24L3.61109 13.6533L2.67834 12.72L4.09079 11.2933ZM15.6569 7.33334V8.66668H13.6581V7.33334H15.6569ZM2.99814 7.33334V8.66668H0.99939V7.33334H2.99814Z" fill="#FACC15"/>
</svg>
