<svg width="15" height="14" viewBox="0 0 15 14" fill="none" xmlns="http://www.w3.org/2000/svg">
<path d="M6.41433 9.91668H2.62401V8.75001H6.41433C6.78753 8.75001 7.12963 8.8414 7.44063 9.02418C7.75163 9.20695 7.99848 9.4539 8.18119 9.76501C8.36391 10.0761 8.45526 10.4183 8.45526 10.7917C8.45526 11.165 8.36391 11.5072 8.18119 11.8183C7.99848 12.1295 7.75163 12.3764 7.44063 12.5592C7.12963 12.742 6.78753 12.8333 6.41433 12.8333C5.97893 12.8333 5.58823 12.7108 5.24224 12.4658C4.89626 12.2208 4.6494 11.9 4.50168 11.5033L5.59795 11.095C5.66015 11.2661 5.76511 11.4042 5.91284 11.5092C6.06056 11.6142 6.22773 11.6667 6.41433 11.6667C6.65535 11.6667 6.86139 11.5811 7.03244 11.41C7.20349 11.2389 7.28901 11.0328 7.28901 10.7917C7.28901 10.5506 7.20349 10.3445 7.03244 10.1733C6.86139 10.0022 6.65535 9.91668 6.41433 9.91668ZM3.20714 6.41668H11.0793C11.4525 6.41668 11.7946 6.50807 12.1056 6.69084C12.4166 6.87362 12.6635 7.12057 12.8462 7.43168C13.0289 7.74279 13.1203 8.08501 13.1203 8.45834C13.1203 8.83168 13.0289 9.1739 12.8462 9.48501C12.6635 9.79612 12.4166 10.0431 12.1056 10.2258C11.7946 10.4086 11.4525 10.5 11.0793 10.5C10.6439 10.5 10.2532 10.3775 9.90724 10.1325C9.56126 9.88751 9.3144 9.56668 9.16668 9.17001L10.263 8.76168C10.3252 8.93279 10.4301 9.07084 10.5778 9.17584C10.7256 9.28084 10.8927 9.33334 11.0793 9.33334C11.3204 9.33334 11.5264 9.24779 11.6974 9.07668C11.8685 8.90557 11.954 8.69945 11.954 8.45834C11.954 8.21723 11.8685 8.01112 11.6974 7.84001C11.5264 7.6689 11.3204 7.58334 11.0793 7.58334H3.20714C2.88836 7.58334 2.59486 7.50557 2.32662 7.35001C2.05838 7.19445 1.84651 6.98251 1.69101 6.71418C1.53551 6.44584 1.45776 6.15223 1.45776 5.83334C1.45776 5.51445 1.53551 5.22084 1.69101 4.95251C1.84651 4.68418 2.05838 4.47223 2.32662 4.31668C2.59486 4.16112 2.88836 4.08334 3.20714 4.08334H8.1637C8.40473 4.08334 8.61076 3.99779 8.78181 3.82668C8.95286 3.65557 9.03839 3.44945 9.03839 3.20834C9.03839 2.96723 8.95286 2.76112 8.78181 2.59001C8.61076 2.4189 8.40473 2.33334 8.1637 2.33334C7.9771 2.33334 7.80994 2.38584 7.66221 2.49084C7.51449 2.59584 7.40953 2.7339 7.34733 2.90501L6.25105 2.49668C6.39878 2.10001 6.64563 1.77918 6.99162 1.53418C7.33761 1.28918 7.7283 1.16668 8.1637 1.16668C8.5369 1.16668 8.879 1.25807 9.19 1.44084C9.501 1.62362 9.74786 1.87057 9.93057 2.18168C10.1133 2.49279 10.2046 2.83501 10.2046 3.20834C10.2046 3.58168 10.1133 3.9239 9.93057 4.23501C9.74786 4.54612 9.501 4.79307 9.19 4.97584C8.879 5.15862 8.5369 5.25001 8.1637 5.25001H3.20714C3.04386 5.25001 2.90586 5.3064 2.79312 5.41918C2.68038 5.53195 2.62401 5.67001 2.62401 5.83334C2.62401 5.99668 2.68038 6.13473 2.79312 6.24751C2.90586 6.36029 3.04386 6.41668 3.20714 6.41668Z" fill="#9CA3AF"/>
</svg>
